# xmcd
# 
# Track frame offsets:
#     150
#     25502
#     42071
#     59159
#     81008
#     96535
#     117203
#     141035
#     163520
#     172717
#     199732
#     218055
#     234970
#     250461
#     268574
# 
# Disc length: 3798
# 
# Revision: 0
# Processed by: cddbd v1.5.2PL0 Copyright (c) Steve Scherf et al.
# Submitted via: BonkEnc v1.0rc1
# 
DISCID=c50ed40f
DTITLE=Harry Manx - Live
DYEAR=2000
DGENRE=Blues
TTITLE0=Bring That Thing
TTITLE1=Call it the Blues
TTITLE2=Baby Please Don't Go
TTITLE3=Reubin's Train
TTITLE4=Only Then Will Your House Be Blessed
TTITLE5=Don't Forget to Miss Me
TTITLE6=Take This Hammer
TTITLE7=Coat of Mail
TTITLE8=Nat Bhariav
TTITLE9=The Gist of Madhuvanti - The Thrill is Gone
TTITLE10=Spoonful
TTITLE11=Sunday Morning Ascension
TTITLE12=Sitting on Top of the World
TTITLE13=Can't be Satisfied
TTITLE14=Lay Down My Worries
EXTD=
EXTT0=
EXTT1=
EXTT2=
EXTT3=
EXTT4=
EXTT5=
EXTT6=
EXTT7=
EXTT8=
EXTT9=
EXTT10=
EXTT11=
EXTT12=
EXTT13=
EXTT14=
PLAYORDER=
